<?xml version="1.0" encoding="UTF-8"?>
<level>
  <owner>Fistachka</owner>
  <repo>dominant-again</repo>
  <version>v1.0.0</version>
  <next number="1" owner="stolbitsa" repo="dominant-low-5"/>
  <readme>
    <ru>bb0c9070bcf976b5e35cfacaf89ac3f8f1303fe34d863d77d839fac509aab746</ru>
    <en>80431fcb7cb5f1ab92c7689bc8278e12eefd5451de2e5ce06ae01cc2cba93532</en>
  </readme>
  <license>b1b99f5538d1fd3702219bff50c665196dfa42f6ee755c37fe41a6178d6bc6e5</license>
  <exercise number="1">
    <scale>major</scale>
    <bpm>80</bpm>
    <lowestNote>1</lowestNote>
    <tonalities>1,2,3,4,5,6,7,8,9,10,11,12</tonalities>
    <notes>
      <note number="1" values="1" ticks="0" durationTicks="96" ppq="96" velocity="0.843"/>
      <note number="2" values="5" ticks="98" durationTicks="91" ppq="96" velocity="0.913"/>
      <note number="3" values="1" ticks="191" durationTicks="95" ppq="96" velocity="0.913"/>
    </notes>
  </exercise>
  <exercise number="2">
    <scale>major</scale>
    <bpm>80</bpm>
    <lowestNote>1</lowestNote>
    <tonalities>1</tonalities>
    <notes>
      <note number="1" values="1" ticks="521" durationTicks="277" ppq="192" velocity="0.324"/>
      <note number="2" values="5" ticks="861" durationTicks="282" ppq="192" velocity="0.371"/>
      <note number="3" values="1" ticks="1201" durationTicks="191" ppq="192" velocity="0.336"/>
    </notes>
  </exercise>
  <exercise number="3">
    <scale>major</scale>
    <bpm>80</bpm>
    <lowestNote>1</lowestNote>
    <tonalities>1,2,3,4,5,6,7,8,9,10,11,12</tonalities>
    <notes>
      <note number="1" values="1,5,18" ticks="0" durationTicks="105" ppq="96" velocity="0.843"/>
      <note number="2" values="1,5,18" ticks="56" durationTicks="91" ppq="96" velocity="0.913"/>
      <note number="3" values="1,5,18" ticks="146" durationTicks="208" ppq="96" velocity="0.874"/>
      <note number="4" values="1,5,18" ticks="196" durationTicks="161" ppq="96" velocity="0.921"/>
    </notes>
  </exercise>
  <exercise number="4">
    <scale>major</scale>
    <bpm>80</bpm>
    <lowestNote>1</lowestNote>
    <tonalities>1,2,3,4,5,6,7,8,9,10,11,12</tonalities>
    <notes>
      <note number="1" values="1,5,18" ticks="0" durationTicks="105" ppq="96" velocity="0.843"/>
      <note number="2" values="1,5,18" ticks="56" durationTicks="91" ppq="96" velocity="0.913"/>
      <note number="3" values="1,5,18" ticks="146" durationTicks="208" ppq="96" velocity="0.874"/>
      <note number="4" values="1,5,18" ticks="196" durationTicks="161" ppq="96" velocity="0.921"/>
    </notes>
  </exercise>
  <exercise number="5">
    <scale>major</scale>
    <bpm>80</bpm>
    <lowestNote>1</lowestNote>
    <tonalities>1</tonalities>
    <notes>
      <note number="1" values="1" ticks="312" durationTicks="105" ppq="96" velocity="0.306"/>
      <note number="2" values="5" ticks="505" durationTicks="188" ppq="96" velocity="0.304"/>
      <note number="3" values="1" ticks="693" durationTicks="208" ppq="96" velocity="0.304"/>
    </notes>
  </exercise>
  <exercise number="6">
    <scale>major</scale>
    <bpm>80</bpm>
    <lowestNote>1</lowestNote>
    <tonalities>1,2,3,4,5,6,7,8,9,10,11,12</tonalities>
    <notes>
      <note number="1" values="1,5,18" ticks="0" durationTicks="105" ppq="96" velocity="0.843"/>
      <note number="2" values="1,5,18" ticks="56" durationTicks="91" ppq="96" velocity="0.913"/>
      <note number="3" values="1,5,18" ticks="146" durationTicks="208" ppq="96" velocity="0.874"/>
      <note number="4" values="1,5,18" ticks="196" durationTicks="161" ppq="96" velocity="0.921"/>
    </notes>
  </exercise>
  <exercise number="7">
    <scale>major</scale>
    <bpm>80</bpm>
    <lowestNote>1</lowestNote>
    <tonalities>1,2,3,4,5,6,7,8,9,10,11,12</tonalities>
    <notes>
      <note number="1" values="1,5,18" ticks="0" durationTicks="105" ppq="96" velocity="0.843"/>
      <note number="2" values="1,5,18" ticks="56" durationTicks="91" ppq="96" velocity="0.913"/>
      <note number="3" values="1,5,18" ticks="146" durationTicks="208" ppq="96" velocity="0.874"/>
      <note number="4" values="1,5,18" ticks="196" durationTicks="161" ppq="96" velocity="0.921"/>
    </notes>
  </exercise>
  <exercise number="8">
    <scale>major</scale>
    <bpm>80</bpm>
    <lowestNote>1</lowestNote>
    <tonalities>1</tonalities>
    <notes>
      <note number="1" values="1" ticks="24" durationTicks="166" ppq="96" velocity="0.304"/>
      <note number="2" values="5" ticks="191" durationTicks="192" ppq="96" velocity="0.296"/>
      <note number="3" values="1" ticks="384" durationTicks="208" ppq="96" velocity="0.314"/>
    </notes>
  </exercise>
  <exercise number="9">
    <scale>major</scale>
    <bpm>80</bpm>
    <lowestNote>1</lowestNote>
    <tonalities>1,2,3,4,5,6,7,8,9,10,11,12</tonalities>
    <notes>
      <note number="1" values="1,5,18" ticks="0" durationTicks="105" ppq="96" velocity="0.843"/>
      <note number="2" values="1,5,18" ticks="56" durationTicks="91" ppq="96" velocity="0.913"/>
      <note number="3" values="1,5,18" ticks="146" durationTicks="208" ppq="96" velocity="0.874"/>
      <note number="4" values="1,5,18" ticks="196" durationTicks="161" ppq="96" velocity="0.921"/>
    </notes>
  </exercise>
  <exercise number="10">
    <scale>major</scale>
    <bpm>80</bpm>
    <lowestNote>1</lowestNote>
    <tonalities>1,2,3,4,5,6,7,8,9,10,11,12</tonalities>
    <notes>
      <note number="1" values="1,5,18" ticks="0" durationTicks="105" ppq="96" velocity="0.843"/>
      <note number="2" values="1,5,18" ticks="56" durationTicks="91" ppq="96" velocity="0.913"/>
      <note number="3" values="1,5,18" ticks="146" durationTicks="208" ppq="96" velocity="0.874"/>
      <note number="4" values="1,5,18" ticks="196" durationTicks="161" ppq="96" velocity="0.921"/>
    </notes>
  </exercise>
  <exercise number="11">
    <scale>major</scale>
    <bpm>80</bpm>
    <lowestNote>1</lowestNote>
    <tonalities>1</tonalities>
    <notes>
      <note number="1" values="1" ticks="99" durationTicks="174" ppq="96" velocity="0.316"/>
      <note number="2" values="5" ticks="293" durationTicks="185" ppq="96" velocity="0.309"/>
      <note number="3" values="1" ticks="481" durationTicks="208" ppq="96" velocity="0.314"/>
    </notes>
  </exercise>
  <exercise number="12">
    <scale>major</scale>
    <bpm>80</bpm>
    <lowestNote>1</lowestNote>
    <tonalities>1,2,3,4,5,6,7,8,9,10,11,12</tonalities>
    <notes>
      <note number="1" values="1,5,18" ticks="0" durationTicks="105" ppq="96" velocity="0.843"/>
      <note number="2" values="1,5,18" ticks="56" durationTicks="91" ppq="96" velocity="0.913"/>
      <note number="3" values="1,5,18" ticks="146" durationTicks="208" ppq="96" velocity="0.874"/>
      <note number="4" values="1,5,18" ticks="196" durationTicks="161" ppq="96" velocity="0.921"/>
    </notes>
  </exercise>
</level>
